<?xml version="1.0" encoding="UTF-8"?>
<svg version="1.1" xmlns="http://www.w3.org/2000/svg" width="2048" height="2048">
<path d="M0 0 C4.12646186 3.37949266 8.26112179 6.74852036 12.40507209 10.1065563 C80.14410673 65.00795991 147.34376951 120.59912928 387.06546863 335.09966966 C391.1158051 338.84617547 395.16954839 342.58896876 399.22503209 346.3299017 C456.15601075 398.8498062 512.39338009 452.05042978 605.81396407 550.31446642 C606.33544334 550.87869905 606.85692261 551.44293168 607.39420428 552.02426228 C657.88735117 606.69159354 706.81408773 663.3989083 830.54736546 1147.11437757 C829.43644313 1174.68995367 827.57127605 1202.21431508 825.53539688 1229.73479304 C825.1974832 1234.33384551 824.86922083 1238.93356835 824.5405623 1243.53328988 C822.25927653 1275.38945489 819.60380775 1307.20299754 816.55425611 1338.9948615 C816.1743034 1342.96029717 815.79865745 1346.92613723 815.42347561 1350.89202689 C807.50464307 1432.90214599 791.61618087 1512.64674515 777.09521407 1593.98634142 C659.61521407 1593.98634142 542.13521407 1593.98634142 421.09521407 1593.98634142 C421.09521407 1711.46634142 421.09521407 1828.94634142 421.09521407 1949.98634142 C233.62073798 1981.75299347 233.62073798 1981.75299347 169.16535971 1987.5612691 C164.90158178 1987.94631324 160.63802405 1988.33361857 156.37465301 1988.72314316 C123.8052565 1991.68793205 91.2120574 1994.21750539 58.58406311 1996.4413175 C53.89287347 1996.7611094 49.20214096 1997.08662587 44.51173002 1997.41764158 C-74.5803838 2005.81240431 -195.7511177 2006.89652475 -585.22091488 1827.04293266 C-601.78736118 1812.6504484 -618.05042513 1797.92109348 -634.18994218 1783.05274767 C-634.74104165 1782.54506087 -635.29214112 1782.03737407 -635.85994057 1781.51430283 C-691.20431693 1730.49797391 -744.18853747 1677.16530819 -834.36447208 1580.0617113 C-837.99869564 1576.10669048 -841.63652657 1572.15501296 -845.27645552 1568.20524275 C-895.3111461 1513.90928652 -944.82037959 1459.14909541 -1146.22838151 1219.67495632 C-1146.78061818 1218.98854219 -1147.33285484 1218.30212806 -1147.90182594 1217.59491349 C-1150.44258099 1214.43621459 -1152.98131448 1211.27594016 -1155.5154852 1208.11195606 C-1160.1877834 1202.28760294 -1164.9334866 1196.55830949 -1169.90478593 1190.98634142 C-1180.98713866 1178.16861252 -1190.48977534 1164.69026062 -1198.90478593 1149.98634142 C-1199.56091874 1148.86356798 -1200.21705156 1147.74079454 -1200.89306718 1146.58399767 C-1223.99738512 1105.42219678 -1236.23318727 1052.19301351 -1223.73046952 1005.9165172 C-1212.30661447 965.37568089 -1193.43711735 928.15366614 -1175.03369218 890.45899767 C-1170.37029974 880.90624545 -1165.78182473 871.31853437 -1161.20996171 861.72169298 C-1158.8046224 856.6806489 -1156.38538805 851.64627251 -1153.96728593 846.61134142 C-1153.46793535 845.57139024 -1152.96858476 844.53143907 -1152.45410234 843.45997423 C-1151.44308706 841.3544803 -1150.43201919 839.24901163 -1149.42089921 837.14356798 C-1146.91483685 831.92482427 -1144.40986297 826.70555815 -1141.90478593 821.48634142 C-1140.90479122 819.40300554 -1139.90479122 817.31967221 -1138.90478593 815.23634142 C-1138.40978593 814.20509142 -1137.91478593 813.17384142 -1137.40478593 812.11134142 C-1081.15478593 694.92384142 -1081.15478593 694.92384142 -1024.90478593 577.73634142 C-1024.40994706 576.70541368 -1023.9151082 575.67448595 -1023.40527421 574.61231798 C-1022.40368892 572.52570912 -1021.40206121 570.43912063 -1020.4003914 568.35255235 C-1017.92430077 563.19449931 -1015.44891068 558.0361126 -1012.97509843 552.87696642 C-1007.61341726 541.69736663 -1002.23657944 530.52523464 -996.84228593 519.36134142 C-991.74060648 508.80284181 -986.6656809 498.23187326 -981.61181718 487.65040392 C-977.228823 478.47476001 -972.8230168 469.31004747 -968.42089921 460.14356798 C-965.91483685 454.92482427 -963.40986297 449.70555815 -960.90478593 444.48634142 C-959.90479122 442.40300554 -958.90479122 440.31967221 -957.90478593 438.23634142 C-957.16228593 436.68946642 -957.16228593 436.68946642 -956.40478593 435.11134142 C-915.90478593 350.73634142 -915.90478593 350.73634142 -914.40405351 347.60987657 C-913.40643139 345.53145654 -912.40887255 343.45300614 -911.41137773 341.37452501 C-908.87552046 336.09076426 -906.33848538 330.80757445 -903.79931718 325.52540392 C-903.2894124 324.46200792 -902.77950761 323.39861192 -902.25415117 322.30299181 C-901.2363167 320.18922693 -900.21117453 318.0789641 -899.17846757 315.9724254 C-896.49744716 310.47557004 -894.03909157 305.0140592 -892.00878984 299.24195665 C-888.59274232 291.3553053 -885.62348624 286.9352532 -877.72709256 283.27123445 C-876.48617913 282.65705835 -876.48617913 282.65705835 -875.22019674 282.03047465 C-873.41090766 281.13638117 -871.59661607 280.25235618 -869.77805428 279.37727726 C-866.84689026 277.95831439 -863.93928354 276.4992147 -861.03495258 275.02616543 C-854.92409569 271.92688366 -848.79809161 268.85857268 -842.66924955 265.79503741 C-839.44529144 264.18297217 -836.22248781 262.56860165 -832.99952221 260.95455331 C-826.63364125 257.76699213 -820.26671155 254.58153121 -813.89943846 251.39675195 C-806.26242601 247.57675369 -798.62656008 243.75446598 -790.99069573 239.93217344 C-772.55185622 230.70238016 -754.11097675 221.47666621 -735.66975322 212.25163739 C-726.939715 207.88450971 -718.20987752 203.51698085 -709.48004539 199.14944121 C-679.57021222 184.18558747 -649.65980365 169.22288445 -619.74788457 154.2632007 C-617.8737401 153.32589109 -615.99959586 152.38858103 -614.12545184 151.45127051 C-613.19611068 150.98648173 -612.26676951 150.52169296 -611.30926649 150.04281968 C-606.60127625 147.68822401 -601.89328889 145.33362258 -597.18530351 142.9790172 C-596.2510196 142.51175517 -595.31673569 142.04449314 -594.35414014 141.56307165 C-564.03413645 126.39911967 -533.71724994 111.22894892 -503.40216351 96.05516923 C-471.31389293 79.99387922 -439.22270418 63.93843466 -407.12822723 47.88954991 C-403.60469151 46.12757329 -400.0811682 44.36557186 -396.5576542 42.60355181 C-395.69013167 42.16972895 -394.82260915 41.73590609 -393.92879806 41.28893708 C-379.98433308 34.31553986 -366.04253839 27.3368203 -352.10170905 20.3561583 C-338.09180531 13.34107162 -324.07894839 6.33191314 -310.06308875 -0.67126653 C-301.74321589 -4.82859856 -293.42558241 -8.99033656 -285.1111357 -13.15851039 C-279.55002466 -15.94583502 -273.9859992 -18.72728085 -268.41961903 -21.50406775 C-265.25323321 -23.08382271 -262.08812585 -24.6659957 -258.92655972 -26.25537744 C-242.00264177 -34.75487712 -225.63967717 -42.23398758 -207.15478593 -46.70115858 C-205.34047075 -47.1443141 -205.34047075 -47.1443141 -203.48950273 -47.59642226 C-128.95579546 -65.3712512 -59.19625865 -48.56149748 0 0 Z " fill="#03589B" transform="translate(1246.9047859311104,75.01365858316422)"/>
<path d="M0 0 C5.59072995 4.69884809 10.91219781 9.62760009 16.19861549 14.66477931 C17.10962319 15.53028273 18.02063088 16.39578616 18.95924487 17.28751696 C21.48751062 19.68973576 24.01363022 22.09420044 26.53931744 24.4991298 C28.72960695 26.58421986 30.92106342 28.66808154 33.11248179 30.75198504 C40.47645495 37.7548784 47.83586997 44.76255271 55.19410265 51.77147698 C57.16250437 53.64641228 59.13099649 55.52125263 61.0995044 57.39607644 C82.30559232 77.59351191 103.49735723 97.80594309 124.68175418 118.02612678 C127.03783022 120.27493575 129.39398329 122.52366399 131.75014697 124.77238113 C214.57809607 203.82529708 297.12936641 283.1557112 379.18153381 363.01400757 C380.55363563 364.34932832 380.55363563 364.34932832 381.95345668 365.71162524 C421.72107042 404.41327039 461.4519776 443.1524182 501.13650914 481.93924097 C502.10460277 482.88543306 503.07269671 483.83162483 504.04079097 484.77781627 C504.52030161 485.2464795 504.99981224 485.71514273 505.4938535 486.19800788 C523.51670153 503.81297198 541.54735874 521.41993665 559.582713 539.02209536 C561.54171272 540.93405685 563.50062263 542.84611028 565.45945104 544.75824728 C611.47477062 589.67658775 657.62064321 634.44710038 704.2409668 678.73809814 C704.72822282 679.20102894 705.21547885 679.66395974 705.71750021 680.14091875 C721.9123497 695.52682353 738.1209675 710.89821114 754.33149318 726.26759594 C768.98203599 740.15802739 783.62761459 754.05365648 798.25697994 767.96639442 C798.73795883 768.42380818 799.21893772 768.88122193 799.71449172 769.3524967 C830.04238999 798.19710155 860.14705837 827.2635659 890.04533482 856.55391502 C890.97486279 857.46445164 891.90439077 858.37498825 892.86208626 859.31311688 C913.31081342 879.34742884 933.71072733 899.43071617 954.06559503 919.56036347 C962.26770323 927.67002342 970.47672941 935.77266914 978.68814278 943.87290573 C979.58642509 944.75936102 980.4847074 945.6458163 981.41021039 946.55913387 C1008.18404192 972.9740815 1035.37239593 998.88313661 1062.94186002 1024.4653291 C1105.28926027 1063.77393516 1146.78451992 1103.81122785 1186.86694336 1145.43603516 C1187.6365282 1146.23348699 1188.40611304 1147.03093882 1189.19901863 1147.85255586 C1267.26602675 1228.76742823 1317.92635774 1301.80996805 1325.05198311 1466.30321377 C1323.85564751 1531.6348572 1316.97695041 1596.62229375 1306 1661 C1120.80314953 1677.62975462 1120.80314953 1677.62975462 1033.89224891 1681.76693404 C1030.52598588 1681.92727704 1027.15980083 1682.08919371 1023.7936193 1682.25123812 C990.04318347 1683.87021619 956.28607727 1685.26060024 922.51913226 1686.48532921 C917.68135544 1686.66082282 912.84370779 1686.83937138 908.00615156 1687.02084297 C791.40328705 1691.38990598 673.45940909 1693.51745378 301.24670413 1547.31280526 C270.97994029 1519.18605925 243.48763053 1488.58693446 216.70905945 1457.16884211 C214.59080138 1454.68647842 212.4667416 1452.20911145 210.3428167 1449.73159646 C156.65404019 1387.08611884 107.44461038 1321.85301867 59.36913383 1246.21613854 C57.57617896 1243.31398515 55.34018322 1241.22781019 52.875 1238.875 C47.45246991 1233.59457636 42.69739817 1227.93674861 38 1222 C36.98292969 1220.78376953 36.98292969 1220.78376953 35.9453125 1219.54296875 C16.79105608 1196.47587784 7.67213071 1169.40200066 3.40136719 1140.17626953 C3.0973525 1137.96339328 3.0973525 1137.96339328 2 1136 C-1.02765195 1111.76367071 -0.28417809 1086.96674967 -0.24453239 1062.60192413 C-0.23756738 1056.92396747 -0.24242366 1051.24601771 -0.24568737 1045.56805938 C-0.24980651 1035.64696394 -0.24659619 1025.72589265 -0.23841095 1015.80480003 C-0.22966683 1005.17655318 -0.22527087 994.54831656 -0.22621536 983.92006683 C-0.22627275 983.24519275 -0.22633013 982.57031866 -0.22638925 981.87499385 C-0.22670206 978.4329419 -0.22708596 974.99088996 -0.22749493 971.54883802 C-0.23029946 946.7261787 -0.22348479 921.90352966 -0.21146011 897.08087349 C-0.19959073 872.51981111 -0.19190505 847.95875314 -0.18975449 823.39768791 C-0.18968566 822.63320307 -0.18961684 821.86871822 -0.18954593 821.08106716 C-0.18891948 814.09805353 -0.1883441 807.11503989 -0.18782998 800.13202624 C-0.18655165 782.77774234 -0.18463329 765.42345855 -0.18227959 748.06917477 C-0.18217295 747.27914495 -0.18206632 746.48911513 -0.18195645 745.67514502 C-0.17672108 707.30157614 -0.16410912 668.92801017 -0.15087891 630.55444336 C-0.14629533 617.24808759 -0.14174449 603.94173181 -0.1373291 590.63537598 C-0.1370552 589.8100461 -0.1367813 588.98471622 -0.13649911 588.13437634 C-0.1237966 549.72301193 -0.11635514 511.31164702 -0.11025951 472.90028106 C-0.10986339 470.40471559 -0.109465 467.90915011 -0.10906615 465.41358464 C-0.10642645 448.87449595 -0.10387718 432.33540724 -0.10138843 415.79631853 C-0.09643622 382.89133021 -0.09095289 349.98634199 -0.08510434 317.08135381 C-0.08482586 315.51454818 -0.08454775 313.94774255 -0.08427001 312.38093692 C-0.07060627 235.31806237 -0.04930088 158.25519039 0 0 Z " fill="#2BB6F5" transform="translate(362,364)"/>
<path d="M0 0 C392.04 0 784.08 0 1188 0 C1188 117.48 1188 234.96 1188 356 C983.78563865 371.0154163 983.78563865 371.0154163 916.25635262 373.76113467 C911.78850228 373.94316695 907.32069691 374.1262266 902.85292988 374.31029268 C868.90530767 375.70399699 834.95279353 376.90229416 800.99308795 377.95921499 C796.13076983 378.11058372 791.2685482 378.26460978 786.40639478 378.421179 C670.17760242 382.16001883 552.83147878 384.25030701 194.04670715 253.43055725 C169.79872233 230.6451814 147.97243796 205.76123012 126.76616985 180.16407395 C124.98882443 178.02166805 123.20557169 175.88421663 121.42247058 173.74660092 C0 28.13032252 0 28.13032252 0 0 Z " fill="#40C4FF" transform="translate(480,1669)"/>
<path d="M0 0 C0.33 0 0.66 0 1 0 C1.00055616 0.95444235 1.00111233 1.90888471 1.00168534 2.89224956 C1.07499719 128.65847507 1.07499719 128.65847507 1.20132446 314.72923279 C1.20246954 316.29840472 1.20361461 317.86757666 1.20475969 319.43674859 C1.22880692 352.37826742 1.25326111 385.31978594 1.27818505 418.26130412 C1.29070582 434.81034197 1.30314843 451.35937988 1.31551713 467.90841785 C1.31738329 470.40468771 1.31925168 472.90095756 1.32112016 475.39722742 C1.3498528 513.80994205 1.37691528 552.22265696 1.39910889 590.63537598 C1.39958565 591.46050094 1.40006241 592.2856259 1.40055362 593.13575464 C1.40822963 606.43815464 1.41576473 619.74055472 1.42328111 633.04295481 C1.44494804 671.38503049 1.46766691 709.72710427 1.49726295 748.06917477 C1.49817625 749.25334541 1.49817625 749.25334541 1.499108 750.4614387 C1.51249676 767.79696095 1.52642072 785.13248272 1.54085055 802.46800413 C1.54664832 809.44456534 1.55236914 816.42112661 1.55806351 823.39768791 C1.55868856 824.16121435 1.55931362 824.92474079 1.55995762 825.71140439 C1.58001691 850.26110041 1.59382687 874.81079501 1.60431816 899.36049684 C1.6149263 924.11609777 1.63174698 948.87168623 1.65705032 973.62727674 C1.66055563 977.05820671 1.66399064 980.48913675 1.66738319 983.92006683 C1.6680507 984.59255161 1.66871821 985.26503638 1.66940594 985.95789948 C1.68036589 997.19333275 1.68353861 1008.42875995 1.68456683 1019.66419848 C1.68601192 1029.47241592 1.69472102 1039.28061012 1.70915592 1049.08881698 C1.71716047 1054.66540461 1.7221789 1060.24194671 1.71827881 1065.81853981 C1.69629683 1094.35231954 1.69629683 1094.35231954 2.89240456 1122.8548727 C2.96980258 1124.09202906 3.04720061 1125.32918541 3.12694403 1126.60383135 C3.56539047 1132.63522905 4.32839756 1138.18818187 6 1144 C6.31181082 1145.6608045 6.60197993 1147.32599036 6.859375 1148.99609375 C10.94531865 1174.1904378 20.17038286 1196.81150278 36 1217 C36.72832031 1217.9384375 37.45664062 1218.876875 38.20703125 1219.84375 C45.55504824 1229.0585605 53.62295147 1237.71467098 62 1246 C61.67 1246.66 61.34 1247.32 61 1248 C28.87342091 1215.89054152 -3.25255816 1183.78048277 -35.37522888 1151.66711426 C-35.85075377 1151.19172743 -36.32627866 1150.71634059 -36.8162134 1150.2265481 C-47.15097146 1139.89478303 -57.48561812 1129.56290654 -67.82015005 1119.23091528 C-72.88829871 1114.16401394 -77.95647199 1109.09713722 -83.0246582 1104.03027344 C-83.78117048 1103.2739573 -83.78117048 1103.2739573 -84.55296583 1102.50236205 C-100.89628471 1086.16330352 -117.24122783 1069.82587097 -133.58701522 1053.489282 C-150.38625767 1036.69947597 -167.18385778 1019.90802855 -183.979397 1003.11451799 C-194.80153713 992.29369199 -205.62511532 981.47430887 -216.45084374 970.65707272 C-223.54589985 963.56729922 -230.63911426 956.47568658 -237.73087979 949.38262159 C-241.82354119 945.28931919 -245.91701292 941.1968358 -250.01267242 937.10653305 C-253.76353379 933.36054168 -257.51207265 929.61224231 -261.25879132 925.86210757 C-262.6133482 924.50712854 -263.96874927 923.15299278 -265.3250869 921.79979628 C-271.76401713 915.37490959 -278.15763894 908.98259639 -284 902 C-284.83144531 901.03835938 -285.66289062 900.07671875 -286.51953125 899.0859375 C-296.6085003 887.15792299 -305.24311206 874.55395246 -313 861 C-313.65613281 859.87722656 -314.31226563 858.75445313 -314.98828125 857.59765625 C-338.09259919 816.43585536 -350.32840134 763.20667209 -337.82568359 716.93017578 C-326.40182854 676.38933947 -307.53233142 639.16732473 -289.12890625 601.47265625 C-284.4655138 591.91990404 -279.8770388 582.33219295 -275.30517578 572.73535156 C-272.89983647 567.69430748 -270.48060212 562.65993109 -268.0625 557.625 C-267.56314941 556.58504883 -267.06379883 555.54509766 -266.54931641 554.47363281 C-265.53830113 552.36813889 -264.52723326 550.26267021 -263.51611328 548.15722656 C-261.01005092 542.93848285 -258.50507704 537.71921674 -256 532.5 C-255.00000529 530.41666413 -254.00000529 528.33333079 -253 526.25 C-252.505 525.21875 -252.01 524.1875 -251.5 523.125 C-214 445 -176.5 366.875 -139 288.75 C-138.50516113 287.71907227 -138.01032227 286.68814453 -137.50048828 285.62597656 C-136.49890299 283.53936771 -135.49727528 281.45277922 -134.49560547 279.36621094 C-132.01951484 274.20815789 -129.54412475 269.04977119 -127.0703125 263.890625 C-121.70863133 252.71102521 -116.33179351 241.53889322 -110.9375 230.375 C-105.83582055 219.8165004 -100.76089497 209.24553184 -95.70703125 198.6640625 C-91.32403707 189.48841859 -86.91823087 180.32370606 -82.51611328 171.15722656 C-80.01005092 165.93848285 -77.50507704 160.71921674 -75 155.5 C-74.00000529 153.41666413 -73.00000529 151.33333079 -72 149.25 C-71.2575 147.703125 -71.2575 147.703125 -70.5 146.125 C-30 61.75 -30 61.75 -28.49902344 58.62304688 C-27.50219393 56.54626462 -26.50544871 54.4694419 -25.50878906 52.39257812 C-22.96098122 47.08367309 -20.41157115 41.77554695 -17.859375 36.46875 C-16.82282467 34.31254422 -15.7863651 32.15629481 -14.75 30 C-14.25266357 28.96552734 -13.75532715 27.93105469 -13.24291992 26.86523438 C-9.89129044 19.88392918 -6.57530513 12.88676734 -3.32128906 5.859375 C-1.10680304 1.10680304 -1.10680304 1.10680304 0 0 Z " fill="#01579B" transform="translate(361,364)"/>
<path d="M0 0 C1.46484162 1.16607393 2.93658938 2.32350775 4.4139415 3.47369039 C12.61696085 9.99055971 19.9391979 17.23013233 27.32116252 24.64650387 C28.72853737 26.05300517 30.13635222 27.4590663 31.54456532 28.86472833 C35.38933999 32.70505479 39.22789067 36.55154894 43.06540722 40.39912635 C47.2136284 44.55601631 51.36766093 48.70709198 55.52097636 52.85889095 C62.70827744 60.04514534 69.89191908 67.23504096 77.07306033 74.4274506 C84.60041049 81.96660467 92.129792 89.5037183 99.66196185 97.03805774 C100.13117728 97.50741065 100.6003927 97.97676355 101.08382677 98.46033926 C103.46697405 100.84416326 105.85015831 103.22795027 108.23335681 105.61172306 C125.09120085 122.47376225 141.94440829 139.34042855 158.79487163 156.2098431 C175.15970295 172.59305814 191.52664486 188.97415999 207.89643413 205.35242122 C208.40147229 205.85772244 208.90651046 206.36302366 209.42685281 206.88363704 C214.4988906 211.95831198 219.57097117 217.03294416 224.64308308 222.10754503 C234.97455155 232.44408523 245.30573455 242.78091073 255.6367448 253.1179089 C256.34917063 253.8307466 256.34917063 253.8307466 257.0759889 254.55798506 C288.76498147 286.26536319 320.44729897 317.97941097 352.12861186 349.69446224 C349.12861186 349.69446224 349.12861186 349.69446224 347.64814311 348.36633724 C347.0848228 347.73211849 346.52150249 347.09789974 345.94111186 346.44446224 C334.57440139 334.72641708 320.37686119 326.41160505 306.12861186 318.69446224 C305.4864976 318.3451263 304.84438335 317.99579036 304.18281108 317.63586849 C266.63085775 297.43508776 222.93783526 294.52826303 181.07822543 294.55579704 C179.2187945 294.55334294 177.3593641 294.55045712 175.49993443 294.54718426 C170.4210717 294.53947937 165.34222295 294.53784545 160.2633551 294.53725684 C154.72649037 294.53551735 149.18963284 294.52802625 143.65277237 294.52128029 C133.95925542 294.51025457 124.26574105 294.50286379 114.57221919 294.49788135 C100.15840977 294.4904561 85.74460871 294.4773702 71.33080469 294.4631356 C47.08196108 294.43925962 22.8331156 294.42012856 -1.41573399 294.40353626 C-25.42095219 294.38709668 -49.42616741 294.36861258 -73.43138188 294.34740299 C-74.1776083 294.34674459 -74.92383471 294.3460862 -75.69267405 294.34540785 C-82.5085633 294.33939312 -89.32445253 294.33335329 -96.14034174 294.32728335 C-113.08190914 294.31219623 -130.02347681 294.29742374 -146.96504468 294.28286499 C-147.73642334 294.28220185 -148.507802 294.28153871 -149.30255577 294.28085548 C-186.80189771 294.24864558 -224.30124229 294.22006112 -261.80058736 294.19177669 C-274.80945782 294.18196254 -287.81832828 294.17213234 -300.82719868 294.16223568 C-301.63403874 294.16162188 -302.44087879 294.16100808 -303.27216854 294.16037568 C-340.79851688 294.13180577 -378.32486295 294.10065603 -415.85120866 294.06884317 C-418.28823147 294.06677723 -420.72525428 294.06471241 -423.1622771 294.06264781 C-439.31290909 294.04896356 -455.46354105 294.03523488 -471.61417298 294.02147647 C-503.74837417 293.99410237 -535.88257557 293.96698917 -568.01677713 293.94005529 C-569.54700119 293.9387727 -571.07722526 293.93748993 -572.60744933 293.93620698 C-652.82695623 293.86895201 -733.04646638 293.80596697 -877.87138814 293.69446224 C-875.12138525 291.52901341 -872.39176965 289.82929381 -869.26365799 288.26409733 C-868.33564774 287.79733247 -867.40763749 287.3305676 -866.45150572 286.84965834 C-865.43338887 286.34265523 -864.41527202 285.83565213 -863.36630315 285.31328529 C-862.27916866 284.76796501 -861.19203417 284.22264473 -860.07195622 283.66079959 C-857.04297083 282.14244569 -854.01222556 280.62770822 -850.98069575 279.11444713 C-847.68703654 277.46924807 -844.39568818 275.81943767 -841.1040439 274.17021203 C-835.33073024 271.27839556 -829.55592233 268.38958102 -823.78013295 265.50271267 C-815.19089443 261.20961596 -806.60393256 256.91198082 -798.01740141 252.61347227 C-781.78820155 244.48919002 -765.55625169 236.37041281 -749.32340625 228.25341763 C-736.78492182 221.98371614 -724.24707726 215.71273689 -711.70968312 209.44085544 C-708.10263658 207.63643464 -704.49558694 205.83202001 -700.88853639 204.0276072 C-699.99183154 203.57903373 -699.0951267 203.13046026 -698.17124897 202.66829365 C-672.93878698 190.04590609 -647.70544014 177.42528889 -622.47033757 164.80818123 C-621.0424959 164.09428376 -621.0424959 164.09428376 -619.58580894 163.36596412 C-614.76108663 160.95368607 -609.93635794 158.54142077 -605.11162785 156.12915828 C-603.6742909 155.41051973 -603.6742909 155.41051973 -602.20791685 154.67736322 C-600.27014938 153.70851992 -598.33238136 152.73967771 -596.39461279 151.77083659 C-566.26180985 136.70504755 -536.13225888 121.63277262 -506.0051772 106.55554622 C-472.16364099 89.61941161 -438.31940264 72.68869312 -404.47134584 55.76559377 C-400.8605154 53.96025318 -397.24969532 52.15489185 -393.63888234 50.34951633 C-392.7497982 49.90498592 -391.86071406 49.4604555 -390.94468798 49.00245447 C-376.64522347 41.85275297 -362.34833052 34.69792402 -348.05232652 27.54130616 C-333.67656052 20.34493867 -319.29780018 13.15458273 -304.91601184 5.97025814 C-296.3762687 1.70407738 -287.83875508 -2.56649289 -279.3044191 -6.84348057 C-273.59620977 -9.7035968 -267.88508786 -12.55783766 -262.17161002 -15.40741461 C-258.92094824 -17.02887382 -255.67156323 -18.6527523 -252.42571118 -20.28382138 C-235.32584764 -28.87379635 -218.79919555 -36.47924546 -200.12138814 -40.99303776 C-198.30707295 -41.43619328 -198.30707295 -41.43619328 -196.45610493 -41.88830143 C-126.17820969 -58.64820259 -57.00985502 -45.39795144 0 0 Z " fill="#40C4FE" transform="translate(1239.8713881373405,69.30553776025772)"/>
<path d="M0 0 C2.31 1.98 4.62 3.96 7 6 C7.72090561 6.54046898 8.44181122 7.08093796 9.18456245 7.63778478 C12.19742215 10.09357373 13.7756148 11.98997666 14.62996899 15.83567452 C14.89421332 19.45438075 14.91289595 23.00819664 14.8613348 26.63634396 C14.86651555 28.03955668 14.87476919 29.44276082 14.88581029 30.84593967 C14.9072887 34.70979997 14.88507621 38.57237062 14.85586335 42.43613479 C14.83182114 46.63632788 14.84841989 50.83639029 14.85990578 55.03660923 C14.87442596 62.40039516 14.86290947 69.76378535 14.83443832 77.12752533 C14.79222051 88.07707769 14.79008507 99.02638014 14.79623224 109.97599905 C14.80543358 128.39420006 14.78202455 146.81222541 14.7401104 165.23037529 C14.69870894 183.46993312 14.67175237 201.70941781 14.6641407 219.94902229 C14.66365952 221.08257278 14.66317835 222.21612327 14.66268259 223.38402377 C14.6603143 229.14061774 14.6582046 234.89721176 14.65619446 240.65380586 C14.64148668 281.44104735 14.59431154 322.22819323 14.52807617 363.01538086 C14.46379863 402.64265433 14.41420675 442.26990165 14.38452148 481.8972168 C14.3836008 483.11843385 14.38268012 484.3396509 14.38173154 485.59787453 C14.372502 497.86169814 14.36357128 510.12552195 14.35485952 522.38934593 C14.33710543 547.37277031 14.31735666 572.35619298 14.29640198 597.33961487 C14.29544095 598.48834378 14.29447992 599.63707269 14.29348977 600.82061156 C14.2290715 677.54711413 14.1181535 754.27356369 14 831 C-31.2752351 831.27476145 -76.55038184 831.48616374 -121.82628654 831.61278395 C-127.17341765 831.62779215 -132.52054712 831.64332404 -137.86767578 831.65917969 C-138.93217753 831.66232741 -139.99667928 831.66547514 -141.09343866 831.66871825 C-158.32211368 831.72091178 -175.55030743 831.81551375 -192.7786971 831.92583355 C-210.46115906 832.03811526 -228.14336925 832.10471854 -245.82617307 832.12906194 C-256.73473336 832.14551488 -267.64193333 832.19744562 -278.55007479 832.2949976 C-286.03373341 832.35850857 -293.51669048 832.377584 -301.00059894 832.36201653 C-305.31683595 832.35434133 -309.6306992 832.36596639 -313.94651222 832.4304657 C-317.90459889 832.48918466 -321.85873392 832.49162686 -325.81700864 832.45078674 C-327.24259571 832.44574594 -328.66843666 832.4607191 -330.09352931 832.49859819 C-337.66247434 832.68795409 -342.74727431 831.89376429 -348.30435885 826.70402189 C-355 819.8594851 -355 819.8594851 -355 817 C-237.85 817 -120.7 817 0 817 C0 547.39 0 277.78 0 0 Z " fill="#085087" transform="translate(2010,838)"/>
<path d="M0 0 C170.59256655 -0.05709949 170.59256655 -0.05709949 307.33529663 -0.08468628 C308.86758461 -0.08496518 310.39987258 -0.08524408 311.93216056 -0.08552299 C344.09931667 -0.09136908 376.26647285 -0.09680243 408.43362911 -0.10175936 C424.59362541 -0.10425004 440.7536217 -0.10681998 456.91361797 -0.10946488 C459.35120577 -0.10986338 461.78879357 -0.11025962 464.22638137 -0.11065576 C501.73647283 -0.11677161 539.24656299 -0.12458143 576.75665283 -0.1373291 C577.56240013 -0.1376029 578.36814743 -0.1378767 579.19831131 -0.13815879 C592.1883261 -0.14258322 605.17834084 -0.14715056 618.16835557 -0.15173688 C655.60963951 -0.16495391 693.05092244 -0.17710424 730.49220848 -0.18227959 C731.26309484 -0.18238666 732.0339812 -0.18249373 732.82822775 -0.18260404 C749.75609832 -0.18493624 766.68396891 -0.18672564 783.61183959 -0.18800197 C790.42432551 -0.18852517 797.23681142 -0.18912641 804.04929733 -0.18975449 C804.79486749 -0.18982134 805.54043764 -0.18988819 806.30860083 -0.18995707 C830.28168141 -0.19214546 854.25475453 -0.20067226 878.2278321 -0.21256442 C902.40160444 -0.22452686 926.57536958 -0.23018946 950.74914496 -0.22724798 C965.73436761 -0.22543154 980.71956775 -0.2289353 995.70478609 -0.24159509 C1005.28230966 -0.2491312 1014.85981568 -0.24930191 1024.43734048 -0.24366363 C1029.88299527 -0.2406633 1035.32859924 -0.2406939 1040.77424844 -0.24976636 C1089.48081138 -0.3262126 1138.68651367 0.17693072 1183 23 C1183.70334473 23.35932617 1184.40668945 23.71865234 1185.13134766 24.08886719 C1198.96181305 31.23556578 1211.11408775 39.99177021 1223 50 C1219.15174685 50 1217.82409845 48.74933572 1214.625 46.625 C1194.2138109 33.64115035 1171.51523392 26.03226006 1148 21 C1146.8346875 20.72414063 1145.669375 20.44828125 1144.46875 20.1640625 C1124.08587771 15.44234208 1103.04911731 14.83929136 1082.21172047 14.89485455 C1080.34406948 14.89605013 1078.47641816 14.89679571 1076.60876682 14.89713618 C1071.49300109 14.89932848 1066.37726205 14.90776861 1061.26150528 14.91721094 C1055.68969122 14.92632826 1050.11787336 14.92942475 1044.54605359 14.9332245 C1034.78614523 14.94064359 1025.02624612 14.95162377 1015.26634407 14.96491814 C1000.07124581 14.98551603 984.87614459 14.99943168 969.68103792 15.0118385 C964.14319302 15.01637322 958.60534822 15.02102712 953.06750341 15.02567465 C951.66143356 15.02685362 950.25536372 15.02802938 948.84929387 15.02920195 C938.74872533 15.03763466 928.64815781 15.04689222 918.54759054 15.05672776 C876.20716065 15.09789159 833.86675104 15.11981782 791.5263024 15.1282716 C788.43644704 15.12889535 785.34659168 15.12954972 782.25673632 15.13020415 C756.25885164 15.1357028 730.26096678 15.14020132 704.2630818 15.14399754 C682.36315948 15.14719929 660.46323737 15.15095576 638.56331538 15.15593885 C636.11046895 15.15649428 633.65762252 15.15703578 631.20477609 15.15757642 C593.41701576 15.1660199 555.62928878 15.18427218 517.84155273 15.22924805 C516.6219134 15.23069869 516.6219134 15.23069869 515.37763489 15.23217864 C502.26671661 15.24782312 489.15579923 15.26419234 476.04488198 15.28067086 C438.27863091 15.32812812 400.51241998 15.36895214 362.74613476 15.36848164 C361.96956409 15.36847524 361.19299342 15.36846885 360.39289031 15.36846226 C344.11141215 15.36822449 327.8299356 15.36535257 311.54845862 15.35915177 C303.92440271 15.35624955 296.30034668 15.35387145 288.67629051 15.3517704 C287.5503732 15.35144378 287.5503732 15.35144378 286.40171009 15.35111056 C262.2243978 15.34434526 238.047324 15.3760942 213.87007261 15.42824026 C189.52461773 15.48059054 165.17944809 15.49585112 140.83395514 15.45937077 C125.72855389 15.43678381 110.62392981 15.44658497 95.51861468 15.51054539 C85.88627264 15.54805392 76.25459273 15.54220116 66.62226797 15.50083805 C61.13030241 15.47850625 55.64013836 15.47527806 50.14831118 15.52487423 C45.15060454 15.56963958 40.15616933 15.55906866 35.15858716 15.50457778 C33.36332785 15.49466027 31.56781528 15.50480373 29.77282833 15.5376092 C21.38338532 15.68079912 14.93168048 15.66712407 8.56432739 9.70090757 C6.21904802 7.23910866 4.10009842 4.67501631 2 2 C1.34 1.34 0.68 0.68 0 0 Z " fill="#347AB1" transform="translate(361,363)"/>
<path d="M0 0 C1.04458319 0.87151615 2.08546407 1.74746967 3.125 2.625 C3.99511719 3.35589844 3.99511719 3.35589844 4.8828125 4.1015625 C5.58148438 4.72804688 6.28015625 5.35453125 7 6 C7.51305498 6.42280224 8.02610995 6.84560448 8.55471205 7.28121891 C11.64666247 10.01809019 12.87854245 11.42056005 13.74971233 15.57666754 C13.78004642 16.93069637 13.77785434 18.28570568 13.74930167 19.63977325 C13.7614734 20.77132685 13.7614734 20.77132685 13.77389101 21.92574012 C13.79381958 24.46166941 13.77091204 26.99539753 13.74831772 29.53127861 C13.75385615 31.37216477 13.76202733 33.21304456 13.77259725 35.05390871 C13.79410296 40.13765795 13.77804114 45.22071427 13.75613364 50.30443651 C13.73892354 55.82598412 13.75645085 61.34743615 13.76966596 66.86897957 C13.78803492 76.55518587 13.78408066 86.24118581 13.76569176 95.92738914 C13.73845865 110.33216569 13.74550809 124.73680423 13.75981482 139.14158889 C13.78346967 163.37877915 13.77838337 187.61589468 13.75844574 211.85308456 C13.73879274 235.87939872 13.73243972 259.90565979 13.74356842 283.93198013 C13.74390927 284.67837011 13.74425012 285.42476009 13.74460129 286.19376795 C13.74807837 293.77242815 13.75182666 301.3510882 13.75575237 308.92974818 C13.76412583 325.11997963 13.77052285 341.31021174 13.77598953 357.50044441 C13.77625216 358.27246942 13.77651478 359.04449444 13.77678536 359.83991414 C13.78914667 396.5963886 13.78140384 433.35285383 13.77072777 470.10932775 C13.76954672 474.17577268 13.76837855 478.24221762 13.76721039 482.30866255 C13.76697886 483.11455518 13.76674733 483.9204478 13.76650878 484.75076142 C13.76393651 493.71960346 13.76142014 502.68844552 13.75897217 511.6572876 C13.75863969 512.86977424 13.75863969 512.86977424 13.7583005 514.10675556 C13.74807051 551.61429997 13.74786473 589.12184189 13.75124635 626.62938733 C13.75146479 629.06186656 13.7516757 631.49434579 13.75188537 633.92682502 C13.75501574 669.8186805 13.76087479 705.71053486 13.77055259 741.60238918 C13.77118252 743.94111464 13.77180719 746.27984009 13.77243046 748.61856555 C13.77613454 762.50183265 13.77985644 776.38509975 13.78407648 790.26836671 C13.79477988 825.60342736 13.79760017 860.93846603 13.78422006 896.27352628 C13.77850174 911.41640874 13.77376287 926.5592888 13.77416563 941.70217252 C13.77418332 942.3938548 13.77420101 943.08553708 13.77421924 943.79817944 C13.77443771 950.66858843 13.77498336 957.53899734 13.77596301 964.40940627 C13.77805987 979.40384466 13.77454361 994.39826009 13.76174607 1009.39269408 C13.75409677 1018.97822156 13.75374582 1028.56373199 13.75910092 1038.14926096 C13.76192391 1043.59774155 13.76169786 1049.04617065 13.75235149 1054.4946451 C13.64546984 1120.61170653 15.87345733 1191.09581263 61 1244 C60.67 1244.66 60.34 1245.32 60 1246 C52.13983004 1238.35850555 44.78302826 1230.63412184 38 1222 C37.32453125 1221.19175781 36.6490625 1220.38351562 35.953125 1219.55078125 C16.79042535 1196.48869504 7.6721164 1169.40190272 3.40136719 1140.17626953 C3.0973525 1137.96339328 3.0973525 1137.96339328 2 1136 C-1.02765195 1111.76367071 -0.28417809 1086.96674967 -0.24453239 1062.60192413 C-0.23756738 1056.92396747 -0.24242366 1051.24601771 -0.24568737 1045.56805938 C-0.24980651 1035.64696394 -0.24659619 1025.72589265 -0.23841095 1015.80480003 C-0.22966683 1005.17655318 -0.22527087 994.54831656 -0.22621536 983.92006683 C-0.22627275 983.24519275 -0.22633013 982.57031866 -0.22638925 981.87499385 C-0.22670206 978.4329419 -0.22708596 974.99088996 -0.22749493 971.54883802 C-0.23029946 946.7261787 -0.22348479 921.90352966 -0.21146011 897.08087349 C-0.19959073 872.51981111 -0.19190505 847.95875314 -0.18975449 823.39768791 C-0.18968566 822.63320307 -0.18961684 821.86871822 -0.18954593 821.08106716 C-0.18891948 814.09805353 -0.1883441 807.11503989 -0.18782998 800.13202624 C-0.18655165 782.77774234 -0.18463329 765.42345855 -0.18227959 748.06917477 C-0.18217295 747.27914495 -0.18206632 746.48911513 -0.18195645 745.67514502 C-0.17672108 707.30157614 -0.16410912 668.92801017 -0.15087891 630.55444336 C-0.14629533 617.24808759 -0.14174449 603.94173181 -0.1373291 590.63537598 C-0.1370552 589.8100461 -0.1367813 588.98471622 -0.13649911 588.13437634 C-0.1237966 549.72301193 -0.11635514 511.31164702 -0.11025951 472.90028106 C-0.10986339 470.40471559 -0.109465 467.90915011 -0.10906615 465.41358464 C-0.10642645 448.87449595 -0.10387718 432.33540724 -0.10138843 415.79631853 C-0.09643622 382.89133021 -0.09095289 349.98634199 -0.08510434 317.08135381 C-0.08482586 315.51454818 -0.08454775 313.94774255 -0.08427001 312.38093692 C-0.07060627 235.31806237 -0.04930088 158.25519039 0 0 Z " fill="#54C4F7" transform="translate(362,364)"/>
<path d="M0 0 C3.2779964 0.31138135 4.68067027 0.67325837 7.01953125 3.06640625 C7.61121094 3.89011719 8.20289063 4.71382812 8.8125 5.5625 C9.41707031 6.38878906 10.02164062 7.21507812 10.64453125 8.06640625 C11.09183594 8.70449219 11.53914063 9.34257813 12 10 C11.67 10.66 11.34 11.32 11 12 C9.16364422 10.19047409 7.33083792 8.37759362 5.5 6.5625 C4.97535156 6.04623047 4.45070313 5.52996094 3.91015625 4.99804688 C2.58775448 3.68423213 1.29164432 2.34406495 0 1 C0 0.67 0 0.34 0 0 Z " fill="#45BDF5" transform="translate(411,1598)"/>
</svg>
