<?xml version="1.0" standalone="no"?>
<!DOCTYPE svg PUBLIC "-//W3C//DTD SVG 20010904//EN"
 "http://www.w3.org/TR/2001/REC-SVG-20010904/DTD/svg10.dtd">
<svg version="1.0" xmlns="http://www.w3.org/2000/svg"
 width="600.000000pt" height="600.000000pt" viewBox="0 0 600.000000 600.000000"
 preserveAspectRatio="xMidYMid meet">

<g transform="translate(0.000000,600.000000) scale(0.100000,-0.100000)"
fill="#000000" stroke="none">
<path d="M2580 5883 c0 -5 5 -14 12 -21 18 -18 -10 -45 -39 -37 -35 8 -89 -19
-108 -55 -15 -29 -18 -31 -38 -17 -37 24 -82 30 -97 13 -7 -9 -17 -13 -22 -10
-5 3 -2 14 8 25 19 21 5 26 -27 9 -14 -8 -19 -21 -19 -54 0 -29 -7 -52 -20
-67 -14 -18 -19 -20 -20 -8 0 25 -24 69 -37 69 -18 0 -16 -17 2 -24 25 -9 17
-29 -10 -24 -14 3 -25 1 -25 -3 0 -5 7 -9 15 -9 8 0 15 -4 15 -10 0 -5 -12 -7
-27 -4 -17 3 -36 -1 -48 -10 -13 -10 -15 -15 -6 -16 22 0 -8 -30 -31 -30 -29
0 -16 -24 16 -30 l28 -5 -21 -19 c-11 -10 -19 -22 -16 -26 2 -4 -14 -24 -35
-45 -31 -30 -43 -36 -52 -27 -14 14 -44 16 -52 4 -17 -28 -14 -65 9 -88 23
-23 23 -26 10 -63 -7 -22 -21 -51 -30 -64 -14 -21 -14 -25 -1 -30 8 -3 17 -1
19 6 2 7 8 8 13 4 4 -4 3 -17 -4 -27 -17 -27 -15 -60 3 -60 18 0 18 -2 4 -34
-7 -14 -15 -23 -20 -21 -4 3 -10 1 -13 -4 -6 -9 14 -38 66 -93 21 -22 26 -34
19 -46 -12 -24 4 -60 33 -73 13 -6 27 -22 30 -34 7 -27 78 -56 118 -48 30 6
45 -12 27 -33 -18 -22 7 -43 54 -46 36 -3 38 -5 33 -30 -5 -24 -2 -28 16 -28
12 0 32 -10 45 -21 18 -18 25 -20 37 -10 13 11 21 0 55 -67 21 -44 42 -94 46
-111 3 -17 20 -41 35 -55 26 -21 104 -46 145 -46 20 0 29 60 16 106 -14 49 -5
57 13 12 38 -89 44 -226 21 -443 -59 -545 -60 -572 -33 -853 11 -110 10 -125
-5 -151 -16 -28 -16 -29 3 -34 16 -4 20 -14 20 -51 0 -45 -1 -47 -42 -66 l-43
-19 42 0 c49 -1 66 -22 61 -74 -2 -26 -8 -33 -33 -38 -43 -9 -248 -10 -262 -1
-8 5 -10 23 -5 57 6 43 11 50 32 53 l24 4 -24 18 -24 18 12 108 c33 308 23
481 -59 977 -22 131 -44 285 -50 343 -9 95 -8 109 10 148 10 24 25 47 32 52
11 6 12 5 3 -7 -18 -22 -25 -71 -15 -104 l8 -30 6 25 c10 43 16 112 11 125 -9
23 -72 -6 -119 -56 -25 -26 -54 -50 -64 -54 -10 -3 -25 -20 -32 -37 -9 -23
-14 -27 -18 -16 -5 14 -20 10 -91 -22 -47 -22 -86 -46 -88 -54 -2 -9 -7 -16
-12 -16 -5 0 -17 -24 -28 -52 -11 -29 -30 -73 -41 -98 -11 -25 -21 -64 -21
-88 0 -58 -41 -201 -89 -312 -22 -49 -38 -90 -36 -90 3 0 -7 -16 -20 -36 -14
-20 -25 -47 -25 -60 0 -22 2 -21 35 15 19 21 48 43 63 48 52 19 121 33 137 27
12 -5 11 -11 -10 -36 -14 -16 -25 -36 -25 -43 0 -8 -4 -17 -10 -20 -21 -13 -9
44 16 70 l25 28 -28 -7 c-15 -4 -38 -17 -51 -29 -18 -17 -22 -18 -16 -4 8 21
1 21 -34 3 -51 -27 -102 -101 -102 -149 0 -35 56 -106 95 -123 85 -35 201 -3
264 73 17 21 31 31 31 23 0 -8 -10 -87 -22 -175 -12 -88 -21 -176 -21 -195 1
-56 -17 -167 -43 -272 -13 -53 -24 -106 -24 -117 0 -20 10 -24 102 -45 32 -7
34 -22 43 -276 6 -174 17 -368 34 -585 6 -71 12 -311 14 -532 4 -378 3 -404
-14 -430 -22 -33 -24 -56 -7 -83 10 -15 10 -27 0 -53 -9 -26 -10 -42 -1 -63
10 -27 8 -31 -23 -54 -44 -34 -79 -72 -109 -120 -25 -41 -45 -51 -167 -80 -48
-12 -67 -36 -77 -96 -6 -38 -4 -44 22 -62 60 -42 198 -53 325 -27 91 19 279
75 294 86 18 14 25 143 13 219 -13 75 -13 75 44 197 8 18 5 33 -16 76 -15 29
-27 63 -27 77 0 30 32 209 54 304 20 86 20 182 0 287 -24 125 -8 304 57 618
10 51 19 110 19 130 1 65 16 14 75 -247 67 -300 73 -357 51 -471 -23 -122 -20
-244 10 -396 28 -142 28 -257 -1 -298 -21 -30 -19 -83 3 -99 20 -14 35 -71 34
-123 0 -16 -3 -83 -6 -148 -5 -136 -4 -139 76 -157 29 -6 80 -20 113 -31 83
-26 236 -39 326 -28 57 7 79 15 98 34 20 19 23 27 13 37 -7 7 -12 24 -12 38 0
39 -26 68 -73 81 -110 29 -126 39 -162 95 -19 30 -35 61 -35 69 0 8 -4 15 -9
15 -5 0 -24 12 -41 26 -28 24 -29 28 -16 43 13 14 14 23 4 48 -10 26 -9 35 6
58 17 25 16 27 -7 68 l-25 42 3 365 c2 201 8 514 14 695 6 182 11 407 11 502
l0 172 44 19 c24 11 46 25 50 31 7 11 -10 111 -43 251 -11 47 -22 117 -25 156
-3 40 -10 92 -15 115 -5 24 -12 79 -16 122 -6 73 -6 77 13 77 12 0 39 -22 67
-54 74 -87 99 -95 307 -98 l177 -3 35 34 c25 25 48 36 83 41 27 5 67 13 89 19
50 14 144 96 144 127 0 24 6 26 168 40 40 3 79 12 86 20 14 14 26 81 51 304 9
74 25 197 36 273 11 76 18 145 15 154 -6 14 -22 15 -129 9 -222 -13 -822 -46
-832 -46 -29 -1 -37 -28 -64 -199 -30 -190 -45 -234 -56 -165 -7 47 -49 246
-77 369 -20 83 -28 108 -61 173 -7 13 -39 36 -77 53 -129 60 -147 70 -200 114
-30 25 -74 53 -98 63 l-44 17 5 48 c5 62 45 108 91 104 27 -2 31 2 34 26 4 31
9 33 39 12 30 -21 53 -9 53 27 0 23 4 29 15 24 10 -4 15 1 15 16 0 17 4 20 29
15 31 -7 51 17 31 37 -15 15 -12 27 8 25 44 -4 63 2 74 26 8 19 8 29 -5 48
-17 26 -7 57 18 57 8 0 15 5 15 10 0 6 10 10 23 10 52 1 78 56 35 75 -18 8
-24 19 -26 56 -3 43 -1 47 23 53 31 8 33 36 3 37 -21 0 -22 1 -4 8 19 7 19 8
-2 13 -24 7 -30 38 -7 38 18 0 37 34 29 54 -3 9 -17 16 -29 16 -32 0 -39 15
-25 51 10 23 10 36 2 54 -14 29 -28 31 -55 8 -18 -17 -19 -17 -33 2 -8 10 -14
31 -14 46 0 15 -4 31 -10 34 -5 3 -15 15 -20 25 -10 18 -8 19 15 10 30 -11 34
4 5 20 -11 6 -20 19 -20 28 0 39 -46 56 -71 26 -19 -23 -56 -9 -95 34 -25 29
-31 43 -27 64 5 24 2 28 -17 28 -15 0 -25 -9 -33 -31 -12 -30 -14 -31 -59 -26
-28 4 -48 2 -48 -4 0 -13 -34 10 -49 33 -10 16 -8 20 19 29 33 12 50 51 33 77
-11 18 -33 28 -33 15z m-526 -418 c-4 -8 -10 -15 -15 -15 -4 0 -6 7 -3 15 4 8
10 15 15 15 4 0 6 -7 3 -15z m532 -51 c30 -20 65 -50 79 -68 l25 -31 -43 -10
c-45 -12 -58 -34 -36 -61 33 -40 -71 -69 -140 -38 -48 21 -51 31 -15 44 19 7
25 16 22 33 -3 20 -7 22 -63 19 -73 -3 -125 -19 -125 -38 0 -8 5 -14 10 -14
19 0 10 -17 -14 -28 l-24 -10 14 44 c18 60 21 64 50 64 18 0 28 9 41 38 24 51
43 72 67 72 12 1 32 7 46 15 30 17 36 15 106 -31z m-622 -21 c-20 -15 -34 -8
-34 16 0 28 12 33 32 14 18 -16 18 -18 2 -30z m487 -244 c11 -11 18 -27 15
-37 -3 -9 -1 -24 4 -31 12 -20 -4 -48 -40 -66 -56 -29 -128 -14 -149 32 -14
31 -14 73 0 73 6 0 20 11 31 25 26 33 107 36 139 4z m220 -6 c-26 -21 -20 -48
11 -57 35 -9 61 12 56 45 -4 27 -4 28 14 12 10 -9 18 -25 18 -35 0 -16 3 -17
20 -8 26 14 27 -10 3 -51 -32 -55 -123 -62 -162 -13 -18 23 -28 99 -11 89 4
-3 11 2 14 10 5 15 47 37 55 29 2 -2 -6 -12 -18 -21z m-113 -15 c5 -7 16 -31
23 -52 8 -22 29 -50 48 -65 30 -23 44 -26 103 -25 58 1 68 -1 68 -16 0 -28
-36 -52 -80 -54 -22 0 -40 -4 -40 -7 0 -17 -36 -1 -40 17 l-5 22 -43 -20 c-39
-19 -47 -19 -83 -8 -39 13 -66 7 -40 -9 24 -15 1 -33 -38 -29 -20 3 -43 8 -51
11 -8 4 -22 3 -30 -2 -12 -8 -12 -13 0 -36 8 -15 16 -22 18 -16 5 16 20 13 53
-10 34 -24 38 -18 7 11 l-22 20 45 -1 c24 -1 71 -5 104 -9 l60 -7 -85 -3 -85
-4 90 -6 c79 -5 87 -7 65 -17 l-25 -12 25 0 c14 -1 40 8 59 20 31 19 33 19 26
2 -4 -10 -12 -31 -17 -48 -14 -38 -34 -62 -70 -79 -32 -16 -36 -11 -12 15 24
27 9 38 -51 36 -60 -2 -74 -20 -29 -37 31 -12 27 -34 -7 -38 -32 -4 -70 31
-112 101 -60 100 -72 116 -96 129 -31 17 -51 65 -51 124 l0 47 23 -34 c26 -39
85 -63 134 -54 48 9 90 50 110 106 18 49 32 60 51 37z m569 -75 c-9 -9 -19
-14 -23 -11 -10 10 6 28 24 28 15 0 15 -1 -1 -17z m-908 -115 c12 -29 -17 -58
-32 -33 -10 18 0 55 14 55 5 0 14 -10 18 -22z m-159 -43 c10 -13 9 -15 -9 -15
-12 0 -21 6 -21 15 0 8 4 15 9 15 5 0 14 -7 21 -15z m970 10 c0 -2 -9 -9 -20
-15 -16 -9 -18 -8 -14 5 5 13 34 22 34 10z m-910 -85 c0 -5 -7 -10 -15 -10 -8
0 -15 5 -15 10 0 6 7 10 15 10 8 0 15 -4 15 -10z m143 -807 c20 -39 59 -155
54 -159 -2 -3 -17 30 -33 72 -19 50 -36 79 -49 84 -24 8 -314 -12 -332 -23 -9
-5 -13 -3 -13 7 0 20 28 27 148 36 195 15 210 13 225 -17z m-38 -223 c3 -5 -7
-17 -21 -27 -17 -11 -29 -14 -31 -7 -3 8 -19 7 -54 -2 -56 -15 -79 -29 -79
-50 0 -26 37 -35 102 -25 35 6 95 12 135 14 64 4 70 2 61 -12 -7 -12 -28 -17
-76 -19 -70 -2 -135 -27 -167 -62 -26 -28 -12 -35 43 -22 66 15 78 -2 19 -28
-25 -11 -49 -24 -51 -29 -12 -19 -57 -22 -73 -5 -15 15 -18 14 -36 -10 -43
-60 -85 -4 -46 63 11 18 22 53 26 78 7 54 53 119 96 138 37 16 143 20 152 5z
m175 -150 c0 -5 -5 -10 -11 -10 -5 0 -7 5 -4 10 3 6 8 10 11 10 2 0 4 -4 4
-10z m1408 -123 c2 -10 1 -29 -2 -43 -6 -21 -9 -22 -26 -12 -25 16 -25 25 -2
31 14 4 13 6 -6 12 -18 6 -20 10 -11 22 16 18 43 13 47 -10z m-773 -60 l30
-62 55 -9 c30 -5 47 -11 38 -13 -10 -3 -18 -9 -18 -14 0 -5 -9 -9 -20 -9 -11
0 -20 4 -20 9 0 6 -24 11 -52 13 l-53 3 -3 73 c-2 39 1 72 5 71 4 0 22 -28 38
-62z m835 22 c0 -17 -3 -18 -20 -9 -20 11 -25 22 -14 33 11 11 34 -5 34 -24z
m-137 15 c9 -9 -4 -34 -18 -34 -7 0 -18 -7 -25 -15 -20 -24 -22 -12 -4 23 14
30 33 40 47 26z m181 0 c23 -9 20 -31 -6 -37 -12 -4 -23 -5 -25 -4 -3 4 8 47
12 47 2 0 10 -3 19 -6z m-752 -186 c-17 -8 -26 -8 -34 0 -9 9 -4 12 23 11 32
0 33 -1 11 -11z"/>
<path d="M2357 5153 c-15 -14 -6 -53 14 -64 18 -9 25 -7 41 9 28 28 16 62 -21
62 -15 0 -31 -3 -34 -7z"/>
</g>
</svg>
